<svg xmlns="http://www.w3.org/2000/svg" width="500" height="500" version="1.1"><g id="x002"><g><path style="fill:#3C3C3C;stroke:#2B2422;stroke-width:1.5;" d="M343.518,271.261c-0.473-6.59-3.297-9.415-3.297-9.415s-11.779-5.528-25.893-8.685c-5.361-1.988-11.479-3.083-18.122-3.083c-15.781,0-28.636,6.165-35.293,15.899c-1.036-1.115-6.522-3.674-10.913-3.674c-4.392,0-9.876,2.559-10.913,3.674c-6.661-9.734-19.514-15.899-35.295-15.899c-6.642,0-12.761,1.095-18.123,3.083c-14.11,3.156-25.892,8.685-25.892,8.685s-2.825,2.825-3.295,9.415c0.303,2.731,4.323,6.438,7.142,8.731c-0.049,0.69-0.082,1.389-0.082,2.097c0,20.06,18.808,37.657,40.249,37.657c21.44,0,40.247-17.598,40.247-37.657c0-2.19-0.239-4.303-0.693-6.336c1.963-2.038,4.402-3.065,6.654-3.559c2.252,0.493,4.689,1.521,6.652,3.559c-0.453,2.033-0.693,4.146-0.693,6.336c0,20.06,18.807,37.657,40.247,37.657c21.442,0,40.251-17.598,40.251-37.657c0-0.708-0.035-1.406-0.084-2.097C339.193,277.699,343.214,273.992,343.518,271.261z M203.792,314.568c-24.425,0-30.96-17.208-30.96-32.479c0-13.86,12.73-25.736,30.96-25.736c18.228,0,30.96,11.876,30.96,25.736C234.752,297.36,228.216,314.568,203.792,314.568z M296.206,314.568c-24.424,0-30.961-17.208-30.96-32.479c0-13.86,12.732-25.736,30.96-25.736c18.229,0,30.96,11.876,30.96,25.736C327.166,297.36,320.632,314.568,296.206,314.568z"></path></g></g></svg>