<svg xmlns="http://www.w3.org/2000/svg" width="1000" height="1000" version="1.1"><g id="x029"><g><path style="fill:none;" d="M301.972,104.036L103.639,302.37c2.824,7.89,6.266,15.484,10.271,22.726l210.578-210.577C317.274,110.447,309.749,106.927,301.972,104.036z"></path><path style="fill:none;" d="M361.646,143.354L142.635,362.366c5.649,5.399,11.709,10.372,18.121,14.878l215.86-215.86C372.064,155.012,367.058,148.984,361.646,143.354z"></path><path style="fill:none;" d="M398.591,205.403L205.157,398.837c8.828,2.656,17.986,4.548,27.399,5.599l171.831-171.831C403.292,223.266,401.33,214.174,398.591,205.403z"></path><path style="fill:none;" d="M393.694,309.292l-84.402,84.402C347.438,377.938,377.938,347.438,393.694,309.292z"></path><path style="fill:none;" d="M206.146,100.868L100.869,206.146c-3.667,12.49-5.811,25.63-6.21,39.209L245.355,94.658C231.776,95.057,218.636,97.201,206.146,100.868z"></path><path style="fill:#373B66;" d="M96.796,276.213L276.075,96.934c-8.534-1.541-17.252-2.351-26.074-2.351c-1.555,0-3.102,0.03-4.646,0.075L94.659,245.355c-0.045,1.543-0.075,3.091-0.075,4.646C94.584,258.936,95.349,267.69,96.796,276.213z"></path><path style="fill:#E73828;" d="M100.869,206.146l105.278-105.277C155.578,115.715,115.716,155.577,100.869,206.146z"></path><path style="fill:#373B66;" d="M344.293,127.711c-6.268-4.879-12.893-9.29-19.806-13.192L113.91,325.096c3.861,6.981,8.243,13.634,13.094,19.905L344.293,127.711z"></path><path style="fill:#E73828;" d="M276.075,96.934L96.796,276.213c1.53,9.007,3.833,17.749,6.842,26.157l198.333-198.334C293.597,100.922,284.935,98.534,276.075,96.934z"></path><path style="fill:#373B66;" d="M389.063,181.933c-3.627-7.176-7.798-14.042-12.446-20.549l-215.86,215.86c6.553,4.604,13.478,8.713,20.72,12.276L389.063,181.933z"></path><path style="fill:#E73828;" d="M344.293,127.711l-217.29,217.29c4.775,6.173,9.998,11.98,15.631,17.365l219.012-219.013C356.24,137.729,350.438,132.497,344.293,127.711z"></path><path style="fill:#373B66;" d="M265.326,404.664l139.338-139.338c0.493-5.042,0.752-10.153,0.752-15.326c0-5.88-0.357-11.682-1.028-17.396L232.557,404.436c5.728,0.641,11.546,0.98,17.444,0.98C255.173,405.416,260.284,405.157,265.326,404.664z"></path><path style="fill:#E73828;" d="M389.063,181.933L181.476,389.521c7.567,3.725,15.481,6.85,23.682,9.316l193.434-193.434C396.055,197.284,392.857,189.44,389.063,181.933z"></path><path style="fill:#E73828;" d="M404.664,265.326L265.326,404.664c15.43-1.511,30.194-5.281,43.966-10.97l84.402-84.402C399.383,295.521,403.153,280.756,404.664,265.326z"></path></g></g></svg>