<svg xmlns="http://www.w3.org/2000/svg" width="500" height="500" version="1.1"><g id="x009"><g><g><path style="fill:#BF0000;stroke:#1E1E1E;stroke-width:1.5;stroke-linecap:round;stroke-linejoin:round;" d="M233.274,345.876c0,2.869-1.205,17.567,14.465,22.394c0-5.874,0.45-20.19,0.45-20.19L233.274,345.876z"></path><path style="fill:#BF0000;stroke:#1E1E1E;stroke-width:1.5;stroke-linecap:round;stroke-linejoin:round;" d="M266.122,345.876c0,2.869,1.207,17.567-14.465,22.394c0-5.874-0.453-20.19-0.453-20.19L266.122,345.876z"></path><path style="fill:#BF0000;stroke:#1E1E1E;stroke-width:1.5;stroke-linecap:round;stroke-linejoin:round;" d="M281.188,330.09c-1.129,3.487-16.159,10.89-31.19,10.89c-15.026,0-30.057-7.402-31.187-10.89c-4.972-0.368-4.521,2.937-4.521,2.937s1.054,19.456,35.707,19.456c34.659,0,35.713-19.456,35.713-19.456S286.161,329.722,281.188,330.09z"></path><path style="fill:#BF0000;stroke:#1E1E1E;stroke-width:1.5;stroke-linecap:round;stroke-linejoin:round;" d="M258.589,340.735c-1.809-0.734-9.043-0.367-9.043-0.367s-7.23-0.367-9.039,0.367l-6.328,45.156c3.616,1.469,15.367,6.608,15.367,6.608s11.755-5.14,15.37-6.608L258.589,340.735z"></path><path style="fill:#A10000;" d="M250.584,344.083c0,0-2.75,7.25-2.75,11.5s6.75,6,7,4.25c-0.75-5.75-1-16.25-1-16.25L250.584,344.083z"></path><path style="fill:none;stroke:#1E1E1E;stroke-width:1.5;stroke-linecap:round;stroke-linejoin:round;" d="M250.753,341.713c-0.152,0.368-0.756,6.121-1.658,7.224"></path><path style="fill:#BF0000;stroke:#1E1E1E;stroke-width:1.5;stroke-linecap:round;stroke-linejoin:round;" d="M253.164,343.061c0,0,2.108,6.729,0.451,8.565"></path></g></g></g></svg>