<svg xmlns="http://www.w3.org/2000/svg" width="1000" height="1000" version="1.1"><g id="x015"><g><g><g><path style="fill:#FFFFFF;stroke:#1E1E1E;stroke-width:1.832;stroke-linecap:round;stroke-linejoin:round;" d="M293.018,268.3l-20.865,9.631c-1.082,3.683-1.172,5.26,0.107,10.885c2.354,10.354,23.828,16.294,40.41,7.611c12.684-6.641,13.484-18.113,12.531-24.25L293.018,268.3z"></path><path style="fill:#DEE0E8;" d="M313.869,271.187c1.574,1.011,2.994,2.299,4.1,3.938c1.826,2.712,4.992,16.541-15.049,23.746c20.936-4.107,22.305-18.625,21.631-25.808L313.869,271.187z"></path></g><g><path style="fill:#5C858A;" d="M273.848,276.976l14.537,22.098c0,0-12.277-1.411-15.848-11.047C270.377,281.513,273.848,276.976,273.848,276.976z"></path><path style="fill:#85B3BF;" d="M302.965,263.71l-29.285,13.553c-1.186,3.285,0.732,14.576,5.883,18.282c8.232,6.141,21.977,3.937,23.305,3.458C304,298.5,312,296,313.42,280.419C314.076,273.213,309.184,266.899,302.965,263.71z"></path><path style="fill:#5C858A;" d="M273.045,285.992c0,0,3.527-4.518,15.096-6.211c11.566-1.694,25.092,1.505,25.092,1.505c-0.391-0.564,1.375-4.704-1.959-9.976c-7.254-3.576-17.252-3.011-24.701-1.505c-7.451,1.505-12.939,6.776-12.939,6.776S271.477,281.286,273.045,285.992z"></path><ellipse style="fill:#FFFFFF;" cx="308.675" cy="280.087" rx="2.794" ry="3.458"></ellipse><ellipse style="opacity:0.5;fill:#FFFFFF;" cx="291.472" cy="295.474" rx="6.616" ry="2.895"></ellipse><ellipse style="fill:#5C858A;" cx="290.222" cy="280.016" rx="5.515" ry="11.576"></ellipse><ellipse style="fill:#85B3BF;" cx="293.068" cy="288.452" rx="1.891" ry="3.187"></ellipse><ellipse style="fill:#FFFFFF;" cx="293.728" cy="286.368" rx="1.862" ry="2.635"></ellipse></g><path style="fill:#1E1E1E;" d="M271.084,278.087c0,0,9.803-6.022,25.486-6.211c15.684-0.189,27.643,4.14,29.211,3.575s11.764-5.27,13.135-11.67c-7.449,3.389-14.115,6.213-16.859,5.836c5.488-4.33,5.098-12.047,5.098-12.047c-6.471,4.518-12.352,9.034-19.018,9.6c7.057-4.894,8.234-9.599,8.234-11.67c-7.451,6.588-12.941,6.021-23.135,8.093S276.77,270.182,271.084,278.087z"></path></g><g><g><path style="fill:#FFFFFF;stroke:#1E1E1E;stroke-width:1.832;stroke-linecap:round;stroke-linejoin:round;" d="M206.982,268.3l20.865,9.631c1.082,3.683,1.172,5.26-0.107,10.885c-2.353,10.354-23.828,16.294-40.409,7.611c-12.684-6.641-13.485-18.113-12.532-24.25L206.982,268.3z"></path><path style="fill:#DEE0E8;" d="M186.132,271.187c-1.575,1.011-2.995,2.299-4.1,3.938c-1.826,2.712-4.993,16.541,15.049,23.746c-20.936-4.107-22.306-18.625-21.631-25.808L186.132,271.187z"></path></g><g><path style="fill:#5C858A;" d="M226.153,276.976l-14.537,22.098c0,0,12.277-1.411,15.848-11.047C229.623,281.513,226.153,276.976,226.153,276.976z"></path><path style="fill:#85B3BF;" d="M197.035,263.71l29.285,13.553c1.187,3.285-0.732,14.576-5.882,18.282c-8.233,6.141-21.977,3.937-23.306,3.458C191.5,296,186.5,293.5,186.581,280.419C186.625,273.183,190.816,266.899,197.035,263.71z"></path><path style="fill:#5C858A;" d="M226.956,285.992c0,0-3.527-4.518-15.096-6.211c-11.566-1.694-25.093,1.505-25.093,1.505c0.391-0.564-1.375-4.704,1.959-9.976c7.255-3.576,17.252-3.011,24.702-1.505c7.451,1.505,12.939,6.776,12.939,6.776S228.523,281.286,226.956,285.992z"></path><ellipse style="fill:#FFFFFF;" cx="224.326" cy="280.087" rx="2.793" ry="3.458"></ellipse><ellipse style="opacity:0.5;fill:#FFFFFF;" cx="208.528" cy="295.474" rx="6.616" ry="2.895"></ellipse><ellipse style="fill:#5C858A;" cx="209.778" cy="280.016" rx="5.515" ry="11.576"></ellipse><ellipse style="fill:#85B3BF;" cx="206.932" cy="288.452" rx="1.89" ry="3.187"></ellipse><ellipse style="fill:#FFFFFF;" cx="213.283" cy="286.368" rx="1.862" ry="2.635"></ellipse></g><path style="fill:#1E1E1E;" d="M228.917,278.087c0,0-9.803-6.022-25.486-6.211c-15.684-0.189-27.643,4.14-29.211,3.575s-11.765-5.27-13.136-11.67c7.45,3.389,14.116,6.213,16.86,5.836c-5.488-4.33-5.098-12.047-5.098-12.047c6.471,4.518,12.352,9.034,19.018,9.6c-7.058-4.894-8.234-9.599-8.234-11.67c7.45,6.588,12.94,6.021,23.134,8.093C216.958,265.664,223.231,270.182,228.917,278.087z"></path></g></g></g></svg>