<svg xmlns="http://www.w3.org/2000/svg" width="1000" height="1000" version="1.1"><g id="x018"><g><path style="fill:#1E1E1E;" d="M180.204,268.493c0,0,6.93-10.89,18.81-9.404c11.881,1.484,28.711,21.779,30.195,34.154c-3.96-3.465-16.83-23.266-30.195-24.75c-8.491-0.943-16.829,7.425-16.829,7.425S179.709,271.464,180.204,268.493z"></path><path style="fill:#1E1E1E;" d="M319.796,268.493c0,0-6.93-10.89-18.81-9.404c-11.88,1.484-28.711,21.779-30.195,34.154c3.96-3.465,16.83-23.266,30.195-24.75c8.491-0.943,16.829,7.425,16.829,7.425S320.291,271.464,319.796,268.493z"></path></g></g></svg>